<?xml version="1.0" encoding="UTF-8" standalone="no"?>
<svg
   xmlns:dc="http://purl.org/dc/elements/1.1/"
   xmlns:cc="http://creativecommons.org/ns#"
   xmlns:rdf="http://www.w3.org/1999/02/22-rdf-syntax-ns#"
   xmlns:svg="http://www.w3.org/2000/svg"
   xmlns="http://www.w3.org/2000/svg"
   xmlns:sodipodi="http://sodipodi.sourceforge.net/DTD/sodipodi-0.dtd"
   xmlns:inkscape="http://www.inkscape.org/namespaces/inkscape"
   id="svg3731"
   version="1.1"
   viewBox="0 0 79.369189 10.904338"
   height="41.213249"
   width="299.97803"
   sodipodi:docname="logo.svg"
   inkscape:version="0.92.2 2405546, 2018-03-11">
  <sodipodi:namedview
     pagecolor="#ffffff"
     bordercolor="#666666"
     borderopacity="1"
     objecttolerance="10"
     gridtolerance="10"
     guidetolerance="10"
     inkscape:pageopacity="0"
     inkscape:pageshadow="2"
     inkscape:window-width="1920"
     inkscape:window-height="1016"
     id="namedview9225"
     showgrid="false"
     units="px"
     fit-margin-top="0"
     fit-margin-left="0"
     fit-margin-right="0"
     fit-margin-bottom="0"
     inkscape:zoom="2"
     inkscape:cx="179.61644"
     inkscape:cy="13.828005"
     inkscape:window-x="0"
     inkscape:window-y="27"
     inkscape:window-maximized="1"
     inkscape:current-layer="svg3731" />
  <defs
     id="defs3725" />
  <metadata
     id="metadata3728">
    <rdf:RDF>
      <cc:Work
         rdf:about="">
        <dc:format>image/svg+xml</dc:format>
        <dc:type
           rdf:resource="http://purl.org/dc/dcmitype/StillImage" />
        <dc:title></dc:title>
      </cc:Work>
    </rdf:RDF>
  </metadata>
  <g
     transform="matrix(0.78057407,0,0,0.78057407,-25.813936,-80.629352)"
     id="layer1">
    <path
       id="rect2062-3-6-7-9"
       d="m 33.07045,103.29494 h 25.317793 v 13.96964 H 33.07045 Z"
       style="opacity:1;vector-effect:none;fill:#0a2147;fill-opacity:1;fill-rule:evenodd;stroke:none;stroke-width:0.49886057;stroke-linecap:butt;stroke-linejoin:round;stroke-miterlimit:4;stroke-dasharray:none;stroke-dashoffset:0;stroke-opacity:1"
       inkscape:connector-curvature="0" />
    <g
       transform="matrix(1.0025395,0,0,1.0025395,-223.35903,219.25334)"
       id="g3136-1-7">
      <path
         style="fill:#ffffff;fill-opacity:1;fill-rule:nonzero;stroke:none;stroke-width:0.8094269"
         d="m 262.42324,-108.13888 -0.48282,-1.62474 h -0.0206 l -0.5075,1.62474 z m -1.20885,-3.13668 c 0.0138,-0.0459 0.0459,-0.0741 0.0987,-0.0741 h 1.25113 c 0.053,0 0.0847,0.0282 0.0987,0.0741 l 1.7622,5.06449 c 0.0183,0.0459 -0.007,0.0741 -0.053,0.0741 h -1.26523 c -0.0528,0 -0.0847,-0.0282 -0.0987,-0.0741 l -0.24672,-0.80707 h -1.6952 l -0.24318,0.80707 c -0.0184,0.0459 -0.0459,0.0741 -0.10234,0.0741 h -1.25466 c -0.0459,0 -0.0704,-0.0282 -0.0565,-0.0741 l 1.80446,-5.06449"
         id="path7-7-7-7"
         inkscape:connector-curvature="0" />
      <path
         style="fill:#ffffff;fill-opacity:1;fill-rule:nonzero;stroke:none;stroke-width:0.8094269"
         d="m 269.12658,-108.13888 -0.48284,-1.62474 h -0.0207 l -0.50751,1.62474 z m -1.20887,-3.13668 c 0.0138,-0.0459 0.0459,-0.0741 0.0987,-0.0741 h 1.24763 c 0.0564,0 0.0847,0.0282 0.10233,0.0741 l 1.76217,5.06449 c 0.0184,0.0459 -0.007,0.0741 -0.0528,0.0741 h -1.26524 c -0.0528,0 -0.0847,-0.0282 -0.0987,-0.0741 l -0.24669,-0.80707 h -1.69523 l -0.24318,0.80707 c -0.0184,0.0459 -0.0459,0.0741 -0.10211,0.0741 h -1.2582 c -0.0459,0 -0.067,-0.0282 -0.0528,-0.0741 l 1.80446,-5.06449"
         id="path9-5-2-6"
         inkscape:connector-curvature="0" />
      <path
         style="fill:#ffffff;fill-opacity:1;fill-rule:nonzero;stroke:none;stroke-width:0.8094269"
         d="m 273.25959,-108.15299 v -3.12257 c 0,-0.0459 0.0317,-0.0741 0.0776,-0.0741 h 1.19476 c 0.0459,0 0.0776,0.0282 0.0776,0.0741 v 3.20717 c 0,0.52159 0.29251,0.82118 0.72954,0.82118 0.4511,0 0.71896,-0.29959 0.71896,-0.82118 v -3.20717 c 0,-0.0459 0.0317,-0.0741 0.0775,-0.0741 h 1.19476 c 0.0459,0 0.0775,0.0282 0.0775,0.0741 v 3.12257 c 0,1.38859 -0.82822,2.10758 -2.06878,2.10758 -1.26524,0 -2.07938,-0.71899 -2.07938,-2.10758"
         id="path21-3-7-7"
         inkscape:connector-curvature="0" />
    </g>
    <path
       id="rect2062-3-6-7-2-3"
       d="m 59.583088,103.29494 h 75.167892 v 13.96964 H 59.583088 Z"
       style="opacity:1;vector-effect:none;fill:#0a2147;fill-opacity:1;fill-rule:evenodd;stroke:none;stroke-width:0.85957235;stroke-linecap:butt;stroke-linejoin:round;stroke-miterlimit:4;stroke-dasharray:none;stroke-dashoffset:0;stroke-opacity:1"
       inkscape:connector-curvature="0" />
    <g
       transform="matrix(0.96966254,0,0,0.96966254,-188.44636,209.29196)"
       id="g3131-2-6">
      <path
         id="path56-3-2-0-6-5"
         style="fill:#ffffff;fill-opacity:1;fill-rule:nonzero;stroke:none;stroke-width:0.06793785"
         d="m 295.88127,-101.42252 -0.73305,-2.05566 h -0.0172 l -0.73909,2.05566 z m -0.91214,-2.52877 c 0.0121,-0.0352 0.0348,-0.0579 0.0693,-0.0579 h 0.20811 c 0.0403,0 0.0576,0.0228 0.0693,0.0579 l 1.36276,3.81057 c 0.0121,0.0345 -0.007,0.0579 -0.0403,0.0579 h -0.22534 c -0.0407,0 -0.0638,-0.0121 -0.0752,-0.0579 l -0.34655,-0.96413 h -1.70911 l -0.34628,0.96413 c -0.0176,0.0462 -0.0403,0.0579 -0.0755,0.0579 h -0.225 c -0.0345,0 -0.0517,-0.0233 -0.0403,-0.0579 l 1.37419,-3.81057"
         inkscape:connector-curvature="0" />
      <path
         id="path52-9-9-7-1-6"
         style="fill:#ffffff;fill-opacity:1;fill-rule:nonzero;stroke:none;stroke-width:0.06793785"
         d="m 298.47964,-103.95129 c 0,-0.0352 0.0234,-0.0579 0.0576,-0.0579 h 0.21386 c 0.0403,0 0.075,0.0121 0.0979,0.0579 l 1.95777,3.22753 h 0.0172 v -3.22753 c 0,-0.0352 0.0231,-0.0579 0.0576,-0.0579 h 0.21366 c 0.035,0 0.0577,0.0228 0.0577,0.0579 v 3.81057 c 0,0.0345 -0.0228,0.0579 -0.0577,0.0579 h -0.22535 c -0.0341,0 -0.0693,-0.0121 -0.0983,-0.0579 l -1.93995,-3.23337 h -0.0231 v 3.23337 c 0,0.0345 -0.0228,0.0579 -0.0576,0.0579 h -0.21388 c -0.0343,0 -0.0576,-0.0234 -0.0576,-0.0579 v -3.81057"
         inkscape:connector-curvature="0" />
      <path
         id="path56-3-3-8-0-3"
         style="fill:#ffffff;fill-opacity:1;fill-rule:nonzero;stroke:none;stroke-width:0.06793785"
         d="m 305.30123,-101.42252 -0.73306,-2.05566 h -0.0172 l -0.73911,2.05566 z m -0.91213,-2.52877 c 0.0121,-0.0352 0.0346,-0.0579 0.0693,-0.0579 h 0.20809 c 0.0403,0 0.0576,0.0228 0.0693,0.0579 l 1.36276,3.81057 c 0.0121,0.0345 -0.007,0.0579 -0.0403,0.0579 h -0.22527 c -0.0407,0 -0.0638,-0.0121 -0.0752,-0.0579 l -0.34654,-0.96411 h -1.70912 l -0.34629,0.96411 c -0.0176,0.0462 -0.0403,0.0579 -0.0753,0.0579 h -0.22501 c -0.0345,0 -0.0517,-0.0233 -0.0403,-0.0579 l 1.37417,-3.81057"
         inkscape:connector-curvature="0" />
      <path
         id="path67-2-1-6-6-9"
         d="m 307.98638,-103.9994 c -0.0345,0 -0.0583,0.0238 -0.0583,0.0583 v 3.51379 l -3.1e-4,0.0902 v 0.19859 c 0,0.0345 0.0238,0.0557 0.0583,0.0557 h 2.48863 c 0.0345,0 0.0555,-0.0212 0.0555,-0.0557 v -0.19859 c 0,-0.0345 -0.0212,-0.0557 -0.0555,-0.0557 h -2.18388 c -0.0238,0 -0.0345,-0.0138 -0.0345,-0.0345 v -3.51379 c 0,-0.0345 -0.0212,-0.0583 -0.0583,-0.0583 h -0.21184"
         style="fill:#ffffff;fill-opacity:1;fill-rule:nonzero;stroke:none;stroke-width:0.60813731"
         inkscape:connector-curvature="0" />
      <path
         id="path67-2-4-8-1-4"
         d="m 317.2169,-100.08282 c -0.0345,0 -0.0583,-0.0238 -0.0583,-0.0583 v -3.51379 c 0,-0.0212 -0.0103,-0.0345 -0.0345,-0.0345 h -1.12801 c -0.0345,0 -0.0583,-0.0212 -0.0583,-0.0557 v -0.19859 c 0,-0.0345 0.0238,-0.0557 0.0583,-0.0557 h 2.65586 c 0.0345,0 0.0555,0.0212 0.0555,0.0557 v 0.19859 c 0,0.0345 -0.0212,0.0557 -0.0555,0.0557 h -1.13068 c -0.0238,0 -0.0345,0.0138 -0.0345,0.0345 v 3.51379 c 0,0.0345 -0.0212,0.0583 -0.0583,0.0583 h -0.21184"
         style="fill:#ffffff;fill-opacity:1;fill-rule:nonzero;stroke:none;stroke-width:0.60813731"
         inkscape:connector-curvature="0" />
      <path
         style="fill:#ffffff;fill-opacity:1;fill-rule:nonzero;stroke:none;stroke-width:0.60813731"
         d="m 324.0717,-104.11561 c -0.64083,0 -1.077,0.30379 -1.26764,0.88103 -0.069,0.20653 -0.11671,0.46145 -0.11671,1.13403 0,0.67522 0.0479,0.92926 0.11671,1.1358 0.19064,0.57726 0.62681,0.88193 1.26764,0.88193 0.63284,0 1.06989,-0.30467 1.26049,-0.88193 0.003,-0.009 0.005,-0.0185 0.007,-0.0267 h -0.35075 c -0.15308,0.39009 -0.46063,0.59863 -0.91664,0.59863 -0.48991,0 -0.80761,-0.2303 -0.95052,-0.66455 -0.0529,-0.15618 -0.0981,-0.40766 -0.0981,-1.04316 0,-0.63286 0.0452,-0.88778 0.0981,-1.04138 0.14291,-0.4316 0.46061,-0.66189 0.95052,-0.66189 0.45587,0 0.76361,0.20833 0.91664,0.59597 h 0.35101 c -0.003,-0.009 -0.005,-0.0186 -0.007,-0.0267 -0.1906,-0.57723 -0.62765,-0.88102 -1.2605,-0.88102 z"
         id="path63-5-8-8-5-8"
         inkscape:connector-curvature="0" />
      <path
         id="path43-6-4-4-9-1"
         d="m 327.13048,-100.53818 c -0.0238,-0.0238 -0.0291,-0.0583 -0.005,-0.0795 l 0.13774,-0.17476 c 0.0238,-0.0266 0.0583,-0.0266 0.0795,-0.005 0.25949,0.20125 0.66992,0.40515 1.12537,0.40515 0.62755,0 1.01414,-0.31776 1.01414,-0.80232 0,-0.38659 -0.21978,-0.66727 -0.94,-0.75996 l -0.18006,-0.0238 c -0.76525,-0.0979 -1.12802,-0.46605 -1.12802,-1.03535 0,-0.68051 0.48458,-1.10152 1.23394,-1.10152 0.4316,0 0.84732,0.13239 1.11741,0.32834 0.0291,0.0186 0.0345,0.0529 0.0104,0.082 l -0.11378,0.17741 c -0.0238,0.0291 -0.0529,0.0291 -0.082,0.0103 -0.30981,-0.18799 -0.61697,-0.28597 -0.9506,-0.28597 -0.55871,0 -0.88705,0.30981 -0.88705,0.76525 0,0.39718 0.2542,0.65669 0.92147,0.74407 l 0.18006,0.0212 c 0.79437,0.10326 1.14655,0.47398 1.14655,1.05386 0,0.66464 -0.47399,1.13596 -1.38222,1.13596 -0.51369,0 -1.02738,-0.21977 -1.29748,-0.45545"
         style="fill:#ffffff;fill-opacity:1;fill-rule:nonzero;stroke:none;stroke-width:0.60813731"
         inkscape:connector-curvature="0" />
      <path
         id="path67-2-1-0-31-4-2"
         d="m 320.45945,-103.9994 c -0.0345,0 -0.0583,0.0238 -0.0583,0.0583 v 3.51379 l -3.1e-4,0.0902 v 0.19859 c 0,0.0345 0.0238,0.0557 0.0583,0.0557 h 0.21898 c 0.0314,0 0.0505,-0.0212 0.0505,-0.0557 v -0.19859 l 8.3e-4,-0.0902 v -3.51379 c 0,-0.0345 -0.0212,-0.0583 -0.0583,-0.0583 h -0.21186"
         style="fill:#ffffff;fill-opacity:1;fill-rule:nonzero;stroke:none;stroke-width:0.60813731"
         inkscape:connector-curvature="0" />
      <g
         id="g2639-4-9-9"
         transform="matrix(1.7238538,0,0,1.7238538,-197.10235,110.54582)"
         style="fill:#ffffff;fill-opacity:1">
        <path
           style="fill:#ffffff;fill-opacity:1;fill-rule:nonzero;stroke:none;stroke-width:0.35277778"
           d="m 296.63753,-124.46008 -0.123,5.3e-4 c -0.01,2.7e-4 -0.0177,0.003 -0.0238,0.008 v 5.3e-4 l -0.60198,1.07022 -0.61904,-1.06402 c -0.006,-0.006 -0.014,-0.01 -0.0243,-0.01 v 0.001 l -0.12248,-5.3e-4 c -0.0214,0 -0.0339,0.014 -0.0336,0.0341 l 0.6904,1.2299 0.0151,0.0269 v 0.77876 0.0527 0.11524 c 0,0.02 0.014,0.032 0.0341,0.032 h 0.12713 c 0.0183,0 0.0289,-0.012 0.0289,-0.032 v -0.11524 -0.0527 -0.77669 l 0.014,-0.0284 0.67334,-1.23662 c 1.9e-4,-0.0201 -0.0127,-0.034 -0.0341,-0.0341 z"
           id="path67-2-1-0-3-9-0-3"
           inkscape:connector-curvature="0" />
      </g>
      <path
         id="path43-6-6-9-9"
         d="m 259.43157,-100.52852 c -0.0233,-0.0233 -0.0285,-0.0571 -0.005,-0.0778 l 0.1348,-0.17107 c 0.0233,-0.026 0.0571,-0.026 0.0778,-0.005 0.25398,0.19699 0.65571,0.39657 1.10149,0.39657 0.61424,0 0.99262,-0.31102 0.99262,-0.78531 0,-0.37839 -0.2151,-0.65311 -0.92005,-0.74384 l -0.17624,-0.0233 c -0.74901,-0.0958 -1.10409,-0.45615 -1.10409,-1.01337 0,-0.66608 0.4743,-1.07817 1.20776,-1.07817 0.42245,0 0.82935,0.12959 1.09372,0.32138 0.0285,0.0183 0.0338,0.0519 0.0102,0.0803 l -0.11136,0.17364 c -0.0233,0.0285 -0.0518,0.0285 -0.0803,0.0102 -0.30324,-0.18399 -0.60388,-0.2799 -0.93043,-0.2799 -0.54685,0 -0.86823,0.30324 -0.86823,0.74902 0,0.38875 0.24881,0.64275 0.90192,0.72827 l 0.17624,0.0207 c 0.77752,0.10105 1.12223,0.46392 1.12223,1.0315 0,0.65055 -0.46394,1.11188 -1.35289,1.11188 -0.5028,0 -1.00559,-0.21512 -1.26996,-0.4458"
         style="fill:#ffffff;fill-opacity:1;fill-rule:nonzero;stroke:none;stroke-width:0.59523547"
         inkscape:connector-curvature="0" />
      <path
         id="path45-1-4-1-0"
         d="m 264.86127,-100.08282 c -0.0338,0 -0.0545,-0.0233 -0.0545,-0.0571 v -3.43926 c 0,-0.0207 -0.0135,-0.0338 -0.0338,-0.0338 h -1.10666 c -0.0338,0 -0.057,-0.0207 -0.057,-0.0545 v -0.19437 c 0,-0.0338 0.0233,-0.0545 0.057,-0.0545 h 2.59951 c 0.0338,0 0.0571,0.0207 0.0571,0.0545 v 0.19437 c 0,0.0338 -0.0233,0.0545 -0.0571,0.0545 h -1.10409 c -0.0233,0 -0.0338,0.0135 -0.0338,0.0338 v 3.43926 c 0,0.0338 -0.0233,0.0571 -0.0571,0.0571 h -0.20993"
         style="fill:#ffffff;fill-opacity:1;fill-rule:nonzero;stroke:none;stroke-width:0.59523547"
         inkscape:connector-curvature="0" />
      <path
         id="path47-7-8-9-7-8"
         d="m 268.38603,-101.45905 c 0,0.72311 0.36803,1.07299 0.97709,1.07299 0.61424,0 0.97967,-0.34988 0.97967,-1.07299 v -2.45956 c 0,-0.0338 0.0233,-0.0545 0.0571,-0.0545 h 0.20993 c 0.0338,0 0.0571,0.0207 0.0571,0.0545 v 2.45437 c 0,0.93563 -0.50799,1.38142 -1.30364,1.38142 -0.79048,0 -1.29846,-0.44579 -1.29846,-1.38142 v -2.45437 c 0,-0.0338 0.0233,-0.0545 0.0571,-0.0545 h 0.20993 c 0.0338,0 0.0545,0.0207 0.0545,0.0545 v 2.45956"
         style="fill:#ffffff;fill-opacity:1;fill-rule:nonzero;stroke:none;stroke-width:0.59523547"
         inkscape:connector-curvature="0" />
      <path
         id="path49-7-5-7-8"
         d="m 273.17039,-100.38598 h 0.85526 c 0.49761,0 0.82417,-0.17624 0.95895,-0.58057 0.0623,-0.18661 0.0907,-0.38358 0.0907,-1.0341 0,-0.64793 -0.0285,-0.84491 -0.0907,-1.03151 -0.13481,-0.40431 -0.46134,-0.58055 -0.95895,-0.58055 h -0.85526 c -0.0233,0 -0.0362,0.0135 -0.0362,0.0338 v 3.15934 c 0,0.0207 0.0135,0.0338 0.0362,0.0338 z m -0.35508,-3.47554 c 0,-0.0338 0.0207,-0.0545 0.0545,-0.0545 h 1.20258 c 0.63757,0 1.05484,0.25398 1.22329,0.77751 0.0726,0.22549 0.1063,0.4406 0.1063,1.13778 0,0.69977 -0.0338,0.91488 -0.1063,1.14037 -0.16838,0.52355 -0.58572,0.77754 -1.22329,0.77754 h -1.20258 c -0.0338,0 -0.0545,-0.0233 -0.0545,-0.0571 v -3.72173"
         style="fill:#ffffff;fill-opacity:1;fill-rule:nonzero;stroke:none;stroke-width:0.59523547"
         inkscape:connector-curvature="0" />
      <path
         id="path51-9-0-1-5"
         d="m 277.43898,-103.86244 c 0,-0.0338 0.0233,-0.0545 0.0571,-0.0545 h 2.19261 c 0.0338,0 0.0571,0.0207 0.0571,0.0545 v 0.19438 c 0,0.0338 -0.0233,0.0545 -0.0571,0.0545 h -1.89455 c -0.0233,0 -0.0338,0.0135 -0.0338,0.0338 v 1.36585 c 0,0.0233 0.0102,0.0338 0.0338,0.0338 h 1.6302 c 0.0338,0 0.0545,0.0233 0.0545,0.0571 v 0.19179 c 0,0.0338 -0.0207,0.0545 -0.0545,0.0545 h -1.6302 c -0.0233,0 -0.0338,0.0135 -0.0338,0.0338 v 1.4229 c 0,0.0207 0.0102,0.0338 0.0338,0.0338 h 1.89455 c 0.0338,0 0.0571,0.0207 0.0571,0.0571 v 0.1892 c 0,0.0338 -0.0233,0.0571 -0.0571,0.0571 h -2.19261 c -0.0338,0 -0.0571,-0.0233 -0.0571,-0.0571 v -3.72175"
         style="fill:#ffffff;fill-opacity:1;fill-rule:nonzero;stroke:none;stroke-width:0.59523547"
         inkscape:connector-curvature="0" />
      <path
         id="path53-5-2-4-1-0"
         d="m 281.70238,-103.86169 c 0,-0.0338 0.0233,-0.0545 0.0571,-0.0545 h 0.20734 c 0.0388,0 0.0726,0.0102 0.0958,0.0545 l 1.9127,3.15414 h 0.0152 v -3.15414 c 0,-0.0338 0.0233,-0.0545 0.0571,-0.0545 h 0.20993 c 0.0338,0 0.0545,0.0207 0.0545,0.0545 v 3.72177 c 0,0.0338 -0.0207,0.0571 -0.0545,0.0571 h -0.22029 c -0.0338,0 -0.0674,-0.0102 -0.0959,-0.0571 l -1.89454,-3.15678 h -0.0233 v 3.15678 c 0,0.0338 -0.0233,0.0571 -0.0571,0.0571 h -0.20736 c -0.0338,0 -0.0571,-0.0233 -0.0571,-0.0571 v -3.72177"
         style="fill:#ffffff;fill-opacity:1;fill-rule:nonzero;stroke:none;stroke-width:0.59523547"
         inkscape:connector-curvature="0" />
      <path
         id="path55-0-8-5-9"
         d="m 287.34718,-100.08282 c -0.0338,0 -0.0571,-0.0233 -0.0571,-0.0571 v -3.43926 c 0,-0.0207 -0.0102,-0.0338 -0.0338,-0.0338 h -1.10407 c -0.0338,0 -0.0571,-0.0207 -0.0571,-0.0545 v -0.19437 c 0,-0.0338 0.0233,-0.0545 0.0571,-0.0545 h 2.59951 c 0.0338,0 0.0543,0.0207 0.0543,0.0545 v 0.19437 c 0,0.0338 -0.0207,0.0545 -0.0543,0.0545 h -1.10667 c -0.0207,0 -0.0338,0.0135 -0.0338,0.0338 v 3.43926 c 0,0.0338 -0.0207,0.0571 -0.0571,0.0571 h -0.20735"
         style="fill:#ffffff;fill-opacity:1;fill-rule:nonzero;stroke:none;stroke-width:0.59523547"
         inkscape:connector-curvature="0" />
    </g>
  </g>
</svg>
